<svg xmlns="http://www.w3.org/2000/svg" viewBox="0 0 400 300" width="400" height="300">
<defs>
  <linearGradient id="g_illus-initiative-outreach" x1="11.697777844051096%" y1="17.860619515673037%" x2="88.3022221559489%" y2="82.13938048432696%">
    <stop offset="0%" stop-color="#0B5FA5"/>
    <stop offset="100%" stop-color="#C22448"/>
  </linearGradient>
</defs>
<rect width="400" height="300" fill="url(#g_illus-initiative-outreach)"/>
<circle cx="111" cy="71" r="1.4" fill="#FFFFFF" opacity="0.10"/><circle cx="88" cy="284" r="2.2" fill="#FFFFFF" opacity="0.15"/><circle cx="65" cy="197" r="3.0" fill="#FFFFFF" opacity="0.20"/><circle cx="42" cy="110" r="1.4" fill="#FFFFFF" opacity="0.25"/><circle cx="19" cy="23" r="2.2" fill="#FFFFFF" opacity="0.10"/><circle cx="396" cy="236" r="3.0" fill="#FFFFFF" opacity="0.15"/><circle cx="373" cy="149" r="1.4" fill="#FFFFFF" opacity="0.20"/><circle cx="350" cy="62" r="2.2" fill="#FFFFFF" opacity="0.25"/><circle cx="327" cy="275" r="3.0" fill="#FFFFFF" opacity="0.10"/><circle cx="304" cy="188" r="1.4" fill="#FFFFFF" opacity="0.15"/><circle cx="281" cy="101" r="2.2" fill="#FFFFFF" opacity="0.20"/><circle cx="258" cy="14" r="3.0" fill="#FFFFFF" opacity="0.25"/><circle cx="235" cy="227" r="1.4" fill="#FFFFFF" opacity="0.10"/><circle cx="212" cy="140" r="2.2" fill="#FFFFFF" opacity="0.15"/>
<g transform="translate(136.0,92.0) scale(1.05)"><g transform="translate(30,60) scale(0.8)"><circle cx="0" cy="-14" r="13" fill="#FFFFFF" opacity="0.92"/><path d="M-22 26 C-22 4 -12 -4 0 -4 C12 -4 22 4 22 26 Z" fill="#FFFFFF" opacity="0.92"/></g><g transform="translate(90,60) scale(0.8)"><circle cx="0" cy="-14" r="13" fill="#FFFFFF" opacity="0.92"/><path d="M-22 26 C-22 4 -12 -4 0 -4 C12 -4 22 4 22 26 Z" fill="#FFFFFF" opacity="0.92"/></g>
<path d="M60 30 C52 20 36 20 30 30 C24 40 30 48 60 66 C90 48 96 40 90 30 C84 20 68 20 60 30 Z" fill="#FFFFFF" opacity="0.95"/>
</g>
</svg>