<svg xmlns="http://www.w3.org/2000/svg" viewBox="0 0 400 300" width="400" height="300">
<defs>
  <linearGradient id="g_illus-shop-tote" x1="21.321178182447692%" y1="9.042397785550413%" x2="78.6788218175523%" y2="90.9576022144496%">
    <stop offset="0%" stop-color="#C22448"/>
    <stop offset="100%" stop-color="#F5A9B8"/>
  </linearGradient>
</defs>
<rect width="400" height="300" fill="url(#g_illus-shop-tote)"/>
<circle cx="111" cy="71" r="1.4" fill="#FFFFFF" opacity="0.10"/><circle cx="229" cy="213" r="2.2" fill="#FFFFFF" opacity="0.15"/><circle cx="347" cy="55" r="3.0" fill="#FFFFFF" opacity="0.20"/><circle cx="65" cy="197" r="1.4" fill="#FFFFFF" opacity="0.25"/><circle cx="183" cy="39" r="2.2" fill="#FFFFFF" opacity="0.10"/><circle cx="301" cy="181" r="3.0" fill="#FFFFFF" opacity="0.15"/><circle cx="19" cy="23" r="1.4" fill="#FFFFFF" opacity="0.20"/><circle cx="137" cy="165" r="2.2" fill="#FFFFFF" opacity="0.25"/><circle cx="255" cy="7" r="3.0" fill="#FFFFFF" opacity="0.10"/><circle cx="373" cy="149" r="1.4" fill="#FFFFFF" opacity="0.15"/><circle cx="91" cy="291" r="2.2" fill="#FFFFFF" opacity="0.20"/><circle cx="209" cy="133" r="3.0" fill="#FFFFFF" opacity="0.25"/><circle cx="327" cy="275" r="1.4" fill="#FFFFFF" opacity="0.10"/><circle cx="45" cy="117" r="2.2" fill="#FFFFFF" opacity="0.15"/>
<g transform="translate(148.0,94.0) scale(1.1)">
  <path d="M28 40 H100 L94 118 H34 Z" fill="#FFFFFF" opacity="0.9"/>
  <path d="M42 40 C42 16 86 16 86 40" fill="none" stroke="#FFFFFF" stroke-width="7"/>
</g>
</svg>