<svg xmlns="http://www.w3.org/2000/svg" viewBox="0 0 400 300" width="400" height="300">
<defs>
  <linearGradient id="g_illus-legal" x1="21.321178182447692%" y1="9.042397785550413%" x2="78.6788218175523%" y2="90.9576022144496%">
    <stop offset="0%" stop-color="#0B5FA5"/>
    <stop offset="100%" stop-color="#7C4DBB"/>
  </linearGradient>
</defs>
<rect width="400" height="300" fill="url(#g_illus-legal)"/>
<circle cx="111" cy="71" r="1.4" fill="#FFFFFF" opacity="0.10"/><circle cx="296" cy="36" r="2.2" fill="#FFFFFF" opacity="0.15"/><circle cx="81" cy="1" r="3.0" fill="#FFFFFF" opacity="0.20"/><circle cx="266" cy="266" r="1.4" fill="#FFFFFF" opacity="0.25"/><circle cx="51" cy="231" r="2.2" fill="#FFFFFF" opacity="0.10"/><circle cx="236" cy="196" r="3.0" fill="#FFFFFF" opacity="0.15"/><circle cx="21" cy="161" r="1.4" fill="#FFFFFF" opacity="0.20"/><circle cx="206" cy="126" r="2.2" fill="#FFFFFF" opacity="0.25"/><circle cx="391" cy="91" r="3.0" fill="#FFFFFF" opacity="0.10"/><circle cx="176" cy="56" r="1.4" fill="#FFFFFF" opacity="0.15"/><circle cx="361" cy="21" r="2.2" fill="#FFFFFF" opacity="0.20"/><circle cx="146" cy="286" r="3.0" fill="#FFFFFF" opacity="0.25"/><circle cx="331" cy="251" r="1.4" fill="#FFFFFF" opacity="0.10"/><circle cx="116" cy="216" r="2.2" fill="#FFFFFF" opacity="0.15"/>
<g transform="translate(142.0,86.0) scale(1.15)">
  <path d="M60 10 V110 M30 118 H90" stroke="#FFFFFF" stroke-width="8" fill="none" stroke-linecap="round" stroke-linejoin="round"/>
  <path d="M20 34 H100" stroke="#FFFFFF" stroke-width="6" fill="none" stroke-linecap="round" stroke-linejoin="round"/>
  <path d="M20 34 L6 62 A16 16 0 0 0 34 62 Z" fill="#FFFFFF" opacity="0.85"/>
  <path d="M100 34 L86 62 A16 16 0 0 0 114 62 Z" fill="#FFFFFF" opacity="0.85"/>
  <circle cx="60" cy="14" r="8" fill="#FFFFFF"/>
</g>
</svg>